<svg width="25" height="30" viewBox="0 0 25 30" fill="none" xmlns="http://www.w3.org/2000/svg">
<path fill-rule="evenodd" clip-rule="evenodd" d="M24.375 8.35394L17.8351 0.625H17.8125V8.4375H24.375V8.35394ZM25 8.4375V9.0625V30H0V0H17.1875H17.8125H18.125L25 8.125V8.4375ZM17.1875 0.625H0.625V29.375H24.375V9.0625H17.1875V0.625ZM15.4533 16.3957C15.4533 17.5414 15.0359 18.3317 14.4585 18.8203C13.828 19.3444 12.8688 19.5931 11.6964 19.5929C10.9949 19.5929 10.4975 19.5484 10.1599 19.5039V13.6244C10.6573 13.5444 11.3056 13.5 11.9895 13.5C13.1265 13.5 13.8636 13.7044 14.441 14.1395C15.0625 14.6015 15.4533 15.3388 15.4533 16.3957ZM12.1315 14.5394C11.8295 14.5394 11.6341 14.566 11.5187 14.5927V18.5094C11.6341 18.5362 11.8206 18.5362 11.9893 18.5362C13.215 18.545 14.0146 17.8701 14.0146 16.4401C14.0232 15.1966 13.295 14.5394 12.1315 14.5394ZM6.80304 17.4172C6.62549 17.4172 6.46549 17.4081 6.34122 17.3906V19.531H5V13.6248C5.4174 13.5538 6.00366 13.5004 6.82961 13.5004C7.6644 13.5004 8.25952 13.6604 8.65921 13.9801C9.0412 14.2819 9.29875 14.7792 9.29875 15.3656C9.29875 15.9515 9.10333 16.4489 8.74807 16.7866C8.28624 17.2217 7.60243 17.4172 6.80304 17.4172ZM6.90075 14.5216C6.62549 14.5216 6.43893 14.5483 6.34122 14.5749V16.3422C6.45663 16.3689 6.59877 16.3778 6.79419 16.3778C7.51357 16.3778 7.9577 16.0138 7.9577 15.401C7.9577 14.8501 7.57571 14.5216 6.90075 14.5216ZM17.6997 17.1238H19.8492V16.0226H17.6997V14.6548H20V13.5446H16.3408V19.5308H17.6997V17.1238Z" fill="#1C355E"/>
</svg>
